<svg xmlns="http://www.w3.org/2000/svg" xmlns:xlink="http://www.w3.org/1999/xlink" version="1.1" x="0px" y="0px" viewBox="15 15 70 70" style="enable-background:new 0 0 100 100;" xml:space="preserve" fill="#fff" stroke="#fff" stroke-width="4"><path d="M89.5929565,43.6033936h-0.000061L52.3670616,15.791626C51.6638756,15.2659302,50.8307457,14.9995117,49.9999962,15  c-0.8307495-0.0004883-1.6638794,0.2659302-2.3670654,0.791626L10.4071026,43.6033936  c-0.4447632,0.3322144-0.5397339,0.9672852-0.2122803,1.418457c0.3275146,0.4511108,0.9534912,0.5475464,1.3981934,0.215271  l8.4070435-6.2809448v40.8492432c-0.0012207,1.4949341,0.7294312,2.8264771,1.8206787,3.7373047  c1.0939331,0.916687,2.5592651,1.4561157,4.15802,1.4572754H54.404232c0.5523071,0,1-0.4542847,1-1.0145264  c0-0.5603027-0.4476929-1.0144653-1-1.0144653H25.9787579c-1.1508789,0.0010986-2.1749268-0.3952026-2.8828735-0.991394  c-0.7107544-0.6020508-1.0946045-1.3605347-1.0958252-2.1741943V37.4619751L48.8189049,17.425415  c0.3571167-0.2663574,0.7678833-0.3959961,1.1810913-0.3964233c0.413208,0.0004272,0.8239746,0.1300659,1.1810913,0.3964233  L77.999939,37.4619751V59.421814c0,0.5602417,0.4476929,1.0144653,1,1.0144653s1-0.4542236,1-1.0144653V38.9561768  l8.4070435,6.2809448c0.4447021,0.3322754,1.0706787,0.2358398,1.3981934-0.215271  C90.1326294,44.5706787,90.0376587,43.9356079,89.5929565,43.6033936z"/><path d="M61.270504,64.8562622h17.6631508c0.5522461,0,1-0.4476929,1-1s-0.4477539-1-1-1H59.5197105  c-0.8763428,0.0006714-1.5854492,0.7097168-1.5860596,1.5860596v19.4139404c0,0.5523071,0.4476929,1,1,1  c0.5522461,0,1-0.4476929,1-1V66.3477783l18.3592567,18.359314c0.3905029,0.3905029,1.0236816,0.3905029,1.4142456,0  c0.3905029-0.390564,0.3905029-1.0236816,0-1.4142456L61.270504,64.8562622z"/></svg>